<svg viewBox="0 0 40.156 38.513" xmlns="http://www.w3.org/2000/svg"><path d="M22.525 12.285a3.634 3.634 0 005.046 5.038 3.644 3.644 0 001.545-3.733 3.651 3.651 0 00-.996-1.861 3.64 3.64 0 00-3.964-.786 3.636 3.636 0 00-1.63 1.342m7.04-.668c.533.796.815 1.732.815 2.69a4.852 4.852 0 01-4.84 4.834 4.836 4.836 0 01-4.47-2.988 4.837 4.837 0 018.496-4.536M12.068 29.219l-2.37-.98a4.094 4.094 0 006.04 1.58 4.084 4.084 0 001.449-1.829 4.085 4.085 0 00-.879-4.387 4.1 4.1 0 00-4.37-.958l2.443 1.013a3.008 3.008 0 011.552 3.907 3.01 3.01 0 01-3.865 1.65zM38.315 5.481h-.343v-.612h.347c.266 0 .358.118.358.29a.323.323 0 01-.11.24.347.347 0 01-.118.068c-.044.014-.089.02-.134.014m.654-.326c0-.265-.144-.518-.637-.518h-.643v1.845h.271v-.73h.397l.371.73h.33l-.422-.816a.558.558 0 00.333-.51m-1.961 1.306a1.591 1.591 0 01-.277-.872h-.016a1.538 1.538 0 011.596-1.6 1.573 1.573 0 011.456.97 1.574 1.574 0 01-1.136 2.155 1.577 1.577 0 01-1.623-.653m2.843.161c.205-.305.316-.665.317-1.033a1.802 1.802 0 00-.527-1.335 1.82 1.82 0 00-1.33-.536 1.867 1.867 0 00-1.723 1.146 1.865 1.865 0 00.397 2.03 1.862 1.862 0 002.866-.272M6.132 5.107A19.26 19.26 0 0119.187 0l.009.031a19.24 19.24 0 0110.14 2.884 19.243 19.243 0 017.103 7.792A19.26 19.26 0 0134.557 30.9a19.252 19.252 0 01-18.918 7.307A19.247 19.247 0 01.672 24.52l7.38 3.054a5.454 5.454 0 005.883 4.336 5.456 5.456 0 004.91-5.414v-.257l6.544-4.67h.152a7.263 7.263 0 10-7.262-7.262v.076l-4.59 6.65h-.304c-1.094 0-2.164.33-3.065.95L0 17.712A19.258 19.258 0 016.132 5.108" fill="#fff" fill-rule="evenodd"/></svg>